<svg width="64" height="64" viewBox="0 0 64 64" fill="none" xmlns="http://www.w3.org/2000/svg">
<path d="M35.4554 63.9582C28.9804 63.9582 22.5054 63.9582 16.0179 63.9582C15.1429 63.9582 15.1429 63.9582 15.1429 63.0582C15.1429 55.0957 15.1429 47.1457 15.1429 39.1832C15.1429 38.3332 15.1429 38.3332 16.0054 38.3332C16.9054 38.3332 17.7929 38.3707 18.6929 38.3207C19.2429 38.2957 19.3929 38.4457 19.3929 39.0082C19.3679 44.7832 19.3804 50.5457 19.3804 56.3207C19.3804 57.2332 19.4054 58.1582 19.3679 59.0707C19.3429 59.5957 19.5179 59.7332 20.0429 59.7332C27.0179 59.7207 33.9929 59.7207 40.9804 59.7207C44.2304 59.7207 47.4804 59.7082 50.7304 59.7332C51.3429 59.7332 51.5429 59.6082 51.5304 58.9457C51.5054 52.3207 51.5179 45.6957 51.5054 39.0707C51.5054 38.4707 51.6554 38.2832 52.2679 38.3082C53.2054 38.3582 54.1429 38.3582 55.0804 38.3082C55.6554 38.2832 55.7679 38.4832 55.7679 39.0082C55.7554 45.2332 55.7554 51.4582 55.7554 57.6957C55.7554 59.4832 55.7554 61.2832 55.7554 63.0707C55.7554 63.9332 55.7554 63.9332 54.9054 63.9332C48.4054 63.9582 41.9304 63.9582 35.4554 63.9582Z" fill="#BCBBBB"/>
<path d="M59.3679 1.85824C59.8054 1.75824 59.7679 2.07074 59.8179 2.30824C60.2054 4.55824 60.5929 6.82074 60.9929 9.07074C61.9304 14.4832 62.8679 19.8957 63.8304 25.2957C63.9304 25.8332 63.7804 25.9832 63.3054 26.0582C61.9929 26.2582 60.6679 26.4582 59.3679 26.7332C58.8054 26.8582 58.7179 26.6457 58.6429 26.1832C58.1679 23.3332 57.6679 20.4832 57.1679 17.6332C56.3554 12.9832 55.5554 8.33324 54.7429 3.67074C54.5679 2.69574 54.5554 2.69574 55.5429 2.50824C56.8179 2.28324 58.1054 2.08324 59.3679 1.85824Z" fill="#F38126"/>
<path d="M57.7428 27.0707C57.7303 27.2707 57.5678 27.3207 57.4553 27.3957C56.2553 28.2207 55.0428 29.0207 53.8553 29.8707C53.4178 30.1832 53.3303 29.8582 53.1553 29.6207C49.9053 24.8582 46.6553 20.0957 43.4054 15.3207C42.2679 13.6582 41.1429 11.9832 39.9804 10.3207C39.7429 9.98324 39.7054 9.80824 40.1054 9.54574C41.2804 8.78324 42.4179 7.99574 43.5679 7.19574C43.8679 6.98324 44.0429 6.93324 44.3054 7.30824C48.7054 13.7832 53.1178 20.2457 57.5303 26.7207C57.6053 26.8332 57.6803 26.9582 57.7428 27.0707Z" fill="#F38126"/>
<path d="M47.8679 44.5957C47.7554 45.7582 47.6304 47.0457 47.5304 48.3332C47.5054 48.7332 47.3679 48.8582 46.9554 48.8207C41.9429 48.3457 36.9304 47.8957 31.9179 47.4332C29.2054 47.1832 26.4929 46.9207 23.7804 46.6957C23.2429 46.6457 23.0429 46.4832 23.1179 45.8957C23.2929 44.5582 23.4054 43.2082 23.5054 41.8582C23.5304 41.4582 23.6679 41.4082 24.0429 41.4332C29.7429 41.9582 35.4304 42.4707 41.1304 42.9832C43.1179 43.1582 45.1054 43.3582 47.0929 43.5582C47.9179 43.6332 47.9179 43.6457 47.8679 44.5957Z" fill="#F38126"/>
<path d="M52.5804 30.9207C52.5179 31.0207 52.4679 31.1332 52.4054 31.2332C51.6929 32.4332 50.9804 33.6332 50.2929 34.8457C50.0804 35.2207 49.9054 35.2832 49.5179 35.0582C42.7804 31.0707 36.0429 27.0957 29.3054 23.1332C28.9304 22.9082 28.9429 22.7457 29.1429 22.4207C29.8679 21.2332 30.5804 20.0332 31.2679 18.8207C31.4679 18.4707 31.6179 18.4082 31.9929 18.6207C38.7429 22.6207 45.5054 26.5957 52.2554 30.5832C52.3804 30.6582 52.5804 30.6957 52.5804 30.9207Z" fill="#F38126"/>
<path d="M26.1554 30.5083C27.9679 30.9958 29.7554 31.4833 31.5429 31.9583C37.3429 33.5208 43.1429 35.0833 48.9429 36.6208C49.4554 36.7583 49.5554 36.9333 49.4054 37.4333C49.0179 38.7332 48.6804 40.0333 48.3429 41.3458C48.2554 41.7083 48.1554 41.8583 47.7179 41.7333C40.1804 39.6833 32.6304 37.6583 25.0929 35.6458C24.6429 35.5208 24.5429 35.3833 24.6804 34.9208C25.0679 33.5833 25.4054 32.2333 25.7679 30.8833C25.8179 30.6833 25.8304 30.3958 26.1554 30.5083Z" fill="#F38126"/>
<path d="M35.0554 55.5832C31.2054 55.5832 27.3554 55.5707 23.5054 55.5957C22.9804 55.5957 22.8429 55.4457 22.8554 54.9332C22.8929 53.5832 22.8804 52.2207 22.8554 50.8707C22.8429 50.4582 22.9804 50.3457 23.3929 50.3457C31.2054 50.3582 39.0054 50.3457 46.8179 50.3332C47.2679 50.3332 47.3804 50.4832 47.3679 50.9082C47.3429 52.2582 47.3429 53.6207 47.3679 54.9707C47.3804 55.4707 47.2179 55.5957 46.7429 55.5957C42.8429 55.5707 38.9429 55.5707 35.0554 55.5832Z" fill="#F38126"/>
</svg>
